<?xml version="1.0" encoding="utf-8"?>
<!-- Generator: Adobe Illustrator 16.0.0, SVG Export Plug-In . SVG Version: 6.00 Build 0)  -->
<!DOCTYPE svg PUBLIC "-//W3C//DTD SVG 1.1//EN" "http://www.w3.org/Graphics/SVG/1.1/DTD/svg11.dtd" [
	<!ENTITY ns_flows "http://ns.adobe.com/Flows/1.0/">
	<!ENTITY ns_extend "http://ns.adobe.com/Extensibility/1.0/">
	<!ENTITY ns_ai "http://ns.adobe.com/AdobeIllustrator/10.0/">
	<!ENTITY ns_graphs "http://ns.adobe.com/Graphs/1.0/">
]>
<svg version="1.1" xmlns:x="&ns_extend;" xmlns:i="&ns_ai;" xmlns:graph="&ns_graphs;"
	 xmlns="http://www.w3.org/2000/svg" xmlns:xlink="http://www.w3.org/1999/xlink" xmlns:a="http://ns.adobe.com/AdobeSVGViewerExtensions/3.0/"
	 x="0px" y="0px" width="247.269px" height="195.09px" viewBox="0 0 247.269 195.09" enable-background="new 0 0 247.269 195.09"
	 xml:space="preserve">
<g id="EXTRA" display="none">
</g>
<g id="Grid">
</g>
<g id="MAP_RESULT">
</g>
<g id="FILTERS">
</g>
<g id="VIDEO_RESULT">
</g>
<g id="NES_RESULT">
</g>
<g id="IMAGE_RESULT">
</g>
<g id="EXTRA_OPIONS">
</g>
<g id="WEB_RESULT_PAGE">
</g>
<g id="HOME_PAGE">
	<g>
		<path fill="#EC1C24" d="M184.928,43.882c-1.043,1.705-3.424,5.587-4.866,7.792c-0.536,0.82-1.696,2.557-2.601,3.907
			c-0.411,0.599-0.816,1.205-1.232,1.798c0.002,0.01,0.004,0.021,0.008,0.031c-0.002,0.001-0.006,0.011-0.006,0.011
			c2.41,9.331,2.383,19.38-0.256,28.697c0.363-0.877,0.707-1.756,1.039-2.637c1.441-3.808,2.617-7.673,3.596-11.583
			c0.572-2.278,1.08-4.567,1.536-6.873c0.028,0.009,0.056,0.016,0.085,0.022c0.953-4.982,1.648-10.005,2.322-15.031
			c0.002-0.02,0.005-0.038,0.007-0.055c0.007-0.056,0.017-0.117,0.024-0.175c0.308-2.312,0.612-4.624,0.932-6.935
			C185.318,43.193,185.129,43.543,184.928,43.882z"/>
		<path fill="#F6921E" d="M184.015,17.315c-5.042-1.29-10.079-2.615-15.116-3.929c-6.082-1.59-12.16-3.192-18.25-4.757
			c-2.574,4.022-5.275,7.9-8.094,11.622c0.051,0.02,0.105,0.038,0.159,0.057c0.583,0.217,1.163,0.447,1.735,0.683
			c0.234,0.098,0.465,0.197,0.697,0.296c0.578,0.249,1.15,0.507,1.721,0.776c0.221,0.106,0.441,0.21,0.66,0.319
			c0.566,0.276,1.127,0.563,1.682,0.859c0.217,0.118,0.432,0.231,0.646,0.35c0.547,0.302,1.086,0.612,1.622,0.933
			c0.215,0.128,0.431,0.257,0.644,0.39c0.521,0.321,1.035,0.651,1.545,0.989c0.218,0.147,0.439,0.292,0.656,0.441
			c0.488,0.335,0.973,0.681,1.45,1.029c0.228,0.169,0.455,0.335,0.68,0.506c0.453,0.345,0.899,0.699,1.343,1.054
			c0.238,0.193,0.477,0.385,0.711,0.583c0.416,0.346,0.822,0.704,1.227,1.061c0.25,0.222,0.5,0.443,0.746,0.669
			c0.375,0.345,0.742,0.7,1.106,1.057c0.262,0.254,0.522,0.51,0.779,0.77c0.334,0.338,0.659,0.683,0.983,1.031
			c0.271,0.291,0.547,0.582,0.813,0.88c0.294,0.327,0.577,0.662,0.862,0.996c0.281,0.332,0.564,0.66,0.838,0.995
			c0.256,0.314,0.5,0.637,0.749,0.956c0.288,0.369,0.573,0.737,0.851,1.115c0.22,0.299,0.432,0.604,0.644,0.905
			c0.29,0.411,0.579,0.819,0.856,1.239c0.187,0.279,0.366,0.568,0.548,0.852c0.286,0.451,0.571,0.898,0.847,1.358
			c0.158,0.266,0.308,0.534,0.46,0.802c0.282,0.488,0.56,0.975,0.825,1.47c0.137,0.252,0.26,0.51,0.391,0.763
			c0.269,0.521,0.535,1.041,0.784,1.571c0.114,0.243,0.221,0.489,0.333,0.735c0.244,0.535,0.486,1.072,0.713,1.619
			c5.055-7.41,9.689-15.328,13.867-23.68c0.111-1.081,0.215-2.163,0.297-3.248c0-0.627,0-1.256,0-1.887
			C187.818,19.065,186.226,17.88,184.015,17.315z"/>
		<path fill="#009747" d="M143.688,6.83c-0.324-0.085-0.646-0.172-0.971-0.259c-0.573-0.153-1.147-0.305-1.721-0.461
			c-0.849-0.229-1.698-0.461-2.55-0.689c-0.273-0.076-0.549-0.146-0.823-0.223C137,5.031,136.379,4.864,135.756,4.7
			c-0.336-0.088-0.668-0.174-1.006-0.262c-0.551-0.146-1.104-0.289-1.657-0.431c-0.371-0.093-0.741-0.181-1.114-0.273
			c-0.516-0.127-1.031-0.255-1.552-0.377c-0.399-0.095-0.799-0.183-1.198-0.273c-0.492-0.112-0.984-0.224-1.477-0.328
			c-0.424-0.09-0.848-0.173-1.271-0.26c-0.371-0.074-0.744-0.155-1.117-0.225v0.007c-0.219-0.042-0.435-0.088-0.652-0.128
			c-0.809,0-1.615,0-2.422,0c-1.531,0.306-3.072,0.538-4.588,0.931c-4.903,1.283-9.811,2.556-14.715,3.833
			c2.646,3.947,5.417,7.741,8.314,11.367c3.963-0.92,8.088-1.42,12.333-1.42c0.782,0,1.557,0.026,2.331,0.057
			c0.398,0.016,0.793,0.042,1.188,0.066c0.526,0.034,1.053,0.073,1.577,0.12c0.378,0.036,0.755,0.079,1.131,0.12
			c0.538,0.063,1.072,0.128,1.604,0.204c0.354,0.051,0.703,0.107,1.053,0.166c0.553,0.09,1.1,0.188,1.646,0.292
			c0.324,0.066,0.646,0.134,0.969,0.203c0.412,0.088,0.82,0.186,1.229,0.284c2.873-3.609,5.627-7.379,8.255-11.301
			C144.307,6.991,143.996,6.912,143.688,6.83z"/>
		<path fill="#4AC6E9" d="M76.018,13.937c-4.43,1.148-8.865,2.276-13.281,3.485c-1.752,0.482-3.071,1.427-3.492,3.319
			c0,1.345,0,2.692,0,4.039c0.031,0.181,0.046,0.363,0.069,0.545c4.272,8.663,9.055,16.876,14.288,24.561
			c5.893-13.781,17.311-24.633,31.471-29.773c-2.823-3.723-5.529-7.604-8.11-11.628C89.982,10.301,83,12.125,76.018,13.937z"/>
		<path fill="#344A99" d="M70.791,84.178c-0.038-0.16-0.082-0.316-0.119-0.475c-2.021-8.692-1.822-17.721,0.404-26.222
			c0.035-0.136,0.094-0.421,0.131-0.556c0,0-0.014-0.019-0.035-0.049c0.002-0.005,0.005-0.012,0.006-0.018
			c-0.742-1.059-1.464-2.143-2.189-3.223c-0.627-0.929-1.245-1.861-1.855-2.805c-0.65-1.002-1.297-2.009-1.932-3.029
			c-0.338-0.541-0.666-1.09-0.998-1.636c-1.498-2.475-2.816-4.746-2.816-4.746s0.002,0.011,0.002,0.014
			c-0.004-0.007-0.008-0.011-0.01-0.018c0.084,0.593,0.172,1.186,0.256,1.781c0.214,1.518,0.424,3.038,0.635,4.557
			c0.484,3.483,0.969,6.966,1.443,10.451c0.336,2.461,0.744,4.895,1.221,7.308c0.016-0.004,0.031-0.006,0.048-0.01
			c0.46,2.304,0.981,4.595,1.573,6.866c0.797,3.068,1.724,6.101,2.791,9.093c0.232,0.65,0.467,1.299,0.712,1.944
			c0.124,0.323,0.249,0.646,0.376,0.969c0.4,1.023,0.815,2.044,1.249,3.058c-0.192-0.624-0.374-1.246-0.543-1.872
			C71.016,85.103,70.903,84.638,70.791,84.178z"/>
		<g>
			<path fill="#B2D235" d="M123.635,125.474c-15.904,0-30.231-6.868-40.174-17.784c3.89,5.355,8.257,10.349,13.133,14.96
				c5.995,5.659,12.553,10.524,19.664,14.645c1.919,1.111,3.754,2.456,6.033,2.81h2.688c0.834-0.309,1.693-0.535,2.494-0.956
				c1.104-0.577,3.271-1.792,3.271-1.792l-3.278-11.873C127.466,125.484,124.357,125.474,123.635,125.474z"/>
			<path fill="#B2D235" d="M140.988,123.566l1.441,5.984c0,0,0.453-0.348,0.676-0.523c2.855-2.232,5.604-4.618,8.256-7.131
				c2.559-2.437,4.961-5.014,7.236-7.708c-4.84,4.035-10.434,7.148-16.608,9.077C141.658,123.369,140.988,123.566,140.988,123.566z"
				/>
		</g>
		<path fill="#62BA46" d="M171.365,71.126c0-26.319-21.413-47.73-47.731-47.73s-47.729,21.411-47.729,47.73
			c0,26.32,21.411,47.73,47.729,47.73c1.823,0,3.619-0.112,5.388-0.313l5.246,19.614c0.433,1.624,1.902,2.695,3.506,2.695
			c0.312,0,0.627-0.042,0.941-0.124c1.938-0.519,3.088-2.51,2.57-4.449l-5.107-19.108
			C156.428,111.651,171.365,93.105,171.365,71.126z M123.215,32.841c0.09,0,0.177,0,0.264,0.002V56.49
			c-0.172,0.001-0.342,0.001-0.511,0.001c-5.341,0-10.654-0.378-15.813-1.128c0.978-7,2.648-13.998,4.971-20.821
			C115.71,33.415,119.438,32.841,123.215,32.841z M106.09,71.07c0.008-4.192,0.268-8.428,0.77-12.616
			c5.096,0.729,10.346,1.113,15.62,1.14c0,0,0.851,0.002,0.976,0V71.07H106.09z M123.455,74.165V85.49c-0.035,0-0.07,0-0.105,0.001
			c-5.281,0.086-10.733,0.537-16.219,1.337c-0.594-4.175-0.938-8.427-1.021-12.664H123.455z M108.726,35.494
			c-2.083,6.427-3.601,12.99-4.519,19.551c-4.838-0.806-9.525-1.941-13.959-3.384C94.418,44.286,100.903,38.62,108.726,35.494z
			 M85.213,70.701c0-5.613,1.299-11.206,3.762-16.231c4.651,1.517,9.59,2.708,14.706,3.545c-0.519,4.314-0.786,8.663-0.792,12.952
			H85.215C85.213,70.876,85.213,70.791,85.213,70.701z M85.314,74.253h17.601c0.087,4.356,0.438,8.719,1.046,12.996
			c-4.529,0.736-9.148,1.722-13.763,2.936C87.381,85.329,85.703,79.855,85.314,74.253z M91.676,92.937
			c4.323-1.123,8.649-2.041,12.891-2.734c0.922,5.64,2.312,11.215,4.137,16.612C101.791,104.03,95.827,99.176,91.676,92.937z
			 M123.486,109.483c-0.087,0-0.176,0.001-0.264,0.001c-3.787,0-7.524-0.576-11.113-1.709c-2.069-5.788-3.623-11.801-4.619-17.896
			c5.396-0.791,10.77-1.234,15.996-1.317V109.483z M158.371,54.49c2.489,5.069,3.751,10.518,3.751,16.211
			c0,0.09-0.002,0.179-0.002,0.267h-15.296c0.065-4.524-0.143-9.037-0.625-13.43C150.373,56.75,154.46,55.729,158.371,54.49z
			 M157.1,51.683c-3.664,1.152-7.489,2.114-11.396,2.865c-0.799-6.115-2.137-12.027-3.984-17.623
			C148.146,40.222,153.53,45.382,157.1,51.683z M126.781,71.059V59.553c5.488-0.127,10.951-0.641,16.271-1.531
			c0.47,4.271,0.678,8.649,0.621,13.037H126.781z M143.619,74.16c-0.139,4.157-0.514,8.341-1.117,12.466
			c-5.148-0.746-10.432-1.135-15.723-1.154V74.16H143.619z M126.762,32.932c3.953,0.272,7.797,1.168,11.448,2.669
			c2.151,6.068,3.686,12.557,4.567,19.308c-5.248,0.895-10.627,1.414-16.016,1.548V32.932z M126.745,109.392V88.547
			c5.202,0.022,10.372,0.405,15.39,1.134c-0.969,5.85-2.399,11.618-4.26,17.167C134.318,108.274,130.58,109.128,126.745,109.392z
			 M141.229,105.62c1.596-5.084,2.852-10.335,3.742-15.652c3.715,0.619,7.412,1.44,11.018,2.448
			C152.365,98.043,147.203,102.654,141.229,105.62z M145.567,87.036c0.632-4.252,1.028-8.549,1.179-12.796h15.264
			c-0.375,5.414-1.957,10.72-4.604,15.445C153.537,88.587,149.563,87.697,145.567,87.036z"/>
		<g>
			<path fill="#3A3E3D" d="M26.438,165.678c-0.277-2.682-1.245-4.623-2.898-5.825c-1.654-1.201-3.77-1.801-6.345-1.801
				c-1.044,0-2.072,0.105-3.082,0.313c-1.01,0.209-1.907,0.558-2.69,1.044c-0.783,0.487-1.41,1.14-1.879,1.958
				c-0.471,0.819-0.707,1.836-0.707,3.056c0,1.15,0.34,2.081,1.021,2.795c0.677,0.715,1.583,1.296,2.716,1.749
				c1.131,0.454,2.411,0.828,3.838,1.124c1.428,0.294,2.889,0.62,4.387,0.967c1.498,0.348,2.959,0.757,4.387,1.225
				c1.43,0.472,2.699,1.107,3.813,1.908c1.115,0.801,2.012,1.819,2.689,3.054c0.68,1.237,1.02,2.762,1.02,4.571
				c0,1.984-0.443,3.683-1.332,5.093c-0.889,1.411-2.028,2.559-3.421,3.446c-1.392,0.888-2.952,1.542-4.673,1.96
				c-1.727,0.416-3.439,0.626-5.146,0.626c-2.089,0-4.067-0.261-5.929-0.782c-1.861-0.523-3.499-1.325-4.91-2.404
				c-1.409-1.08-2.522-2.446-3.342-4.1c-0.817-1.653-1.229-3.61-1.229-5.873h4.703c0,1.564,0.305,2.913,0.914,4.045
				c0.607,1.132,1.41,2.063,2.402,2.794c0.99,0.731,2.141,1.271,3.445,1.62c1.307,0.348,2.673,0.523,4.102,0.523
				c1.113,0,2.236-0.106,3.367-0.313c1.133-0.21,2.152-0.566,3.057-1.072c0.904-0.504,1.637-1.192,2.193-2.063
				c0.558-0.871,0.836-1.984,0.836-3.343c0-1.288-0.339-2.332-1.018-3.134c-0.682-0.803-1.578-1.454-2.691-1.959
				c-1.115-0.505-2.384-0.923-3.813-1.253c-1.428-0.33-2.891-0.654-4.387-0.967c-1.498-0.314-2.961-0.688-4.389-1.124
				c-1.428-0.435-2.707-1.018-3.838-1.75c-1.131-0.729-2.037-1.651-2.716-2.768c-0.679-1.114-1.019-2.525-1.019-4.229
				c0-1.88,0.383-3.508,1.148-4.884c0.766-1.375,1.784-2.508,3.057-3.394c1.27-0.888,2.715-1.55,4.335-1.984
				c1.618-0.436,3.28-0.654,4.987-0.654c1.914,0,3.691,0.227,5.328,0.679c1.637,0.453,3.063,1.167,4.283,2.143
				c1.218,0.973,2.191,2.202,2.924,3.682c0.731,1.479,1.131,3.247,1.203,5.302H26.438z"/>
			<path fill="#3A3E3D" d="M61.014,183.49c-0.594,2.992-1.898,5.274-3.917,6.839c-2.021,1.568-4.563,2.351-7.626,2.351
				c-2.158,0-4.029-0.358-5.615-1.071c-1.583-0.712-2.917-1.697-3.994-2.951c-1.08-1.252-1.889-2.75-2.431-4.491
				c-0.54-1.74-0.843-3.637-0.913-5.691c0-2.021,0.313-3.892,0.939-5.616s1.508-3.212,2.639-4.466
				c1.131-1.253,2.473-2.229,4.021-2.925c1.549-0.696,3.246-1.045,5.092-1.045c2.403,0,4.396,0.496,5.979,1.489
				c1.586,0.993,2.856,2.254,3.813,3.787c0.958,1.532,1.619,3.205,1.986,5.014c0.363,1.813,0.512,3.535,0.443,5.172H41.221
				c-0.037,1.184,0.102,2.306,0.415,3.369c0.313,1.063,0.819,2.002,1.516,2.818c0.696,0.82,1.583,1.473,2.663,1.959
				c1.078,0.488,2.351,0.733,3.813,0.733c1.845,0,3.376-0.436,4.595-1.307c1.22-0.87,2.021-2.194,2.403-3.967H61.014z
				 M56.73,175.967c-0.07-1.046-0.303-2.038-0.704-2.978s-0.942-1.751-1.62-2.429c-0.68-0.679-1.488-1.219-2.428-1.62
				c-0.941-0.4-1.951-0.6-3.031-0.6c-1.147,0-2.184,0.199-3.106,0.6c-0.923,0.401-1.716,0.951-2.376,1.646
				c-0.662,0.696-1.185,1.505-1.567,2.429c-0.384,0.922-0.61,1.905-0.677,2.951H56.73z"/>
			<path fill="#3A3E3D" d="M89.947,191.949c-0.8,0.486-1.862,0.731-3.186,0.731c-1.149,0-2.062-0.331-2.742-0.993
				c-0.678-0.66-1.02-1.723-1.02-3.184c-1.219,1.461-2.637,2.524-4.254,3.184c-1.619,0.662-3.369,0.993-5.25,0.993
				c-1.219,0-2.375-0.141-3.475-0.418c-1.097-0.279-2.043-0.723-2.846-1.332c-0.801-0.609-1.436-1.393-1.906-2.351
				c-0.469-0.958-0.705-2.116-0.705-3.473c0-1.531,0.262-2.785,0.783-3.76s1.209-1.758,2.064-2.352
				c0.852-0.591,1.827-1.052,2.924-1.383c1.096-0.33,2.221-0.6,3.367-0.81c1.221-0.243,2.378-0.427,3.475-0.549
				c1.097-0.121,2.063-0.295,2.898-0.521c0.836-0.228,1.498-0.558,1.985-0.994c0.487-0.435,0.731-1.071,0.731-1.907
				c0-0.973-0.184-1.756-0.548-2.35c-0.366-0.59-0.837-1.043-1.411-1.357c-0.574-0.314-1.219-0.522-1.934-0.627
				c-0.713-0.104-1.418-0.156-2.115-0.156c-1.879,0-3.445,0.356-4.699,1.07c-1.253,0.715-1.932,2.063-2.037,4.049h-4.439
				c0.068-1.674,0.418-3.082,1.045-4.232s1.462-2.08,2.506-2.794c1.045-0.713,2.246-1.229,3.605-1.541
				c1.357-0.315,2.783-0.471,4.281-0.471c1.219,0,2.43,0.087,3.631,0.261c1.201,0.177,2.289,0.532,3.265,1.072
				c0.974,0.539,1.757,1.297,2.349,2.271c0.593,0.973,0.889,2.245,0.889,3.813v13.894c0,1.044,0.061,1.811,0.184,2.297
				c0.121,0.488,0.529,0.733,1.228,0.733c0.417,0,0.869-0.088,1.356-0.261V191.949z M82.739,178.109
				c-0.417,0.312-0.939,0.557-1.564,0.73c-0.628,0.174-1.29,0.322-1.985,0.444c-0.697,0.122-1.438,0.226-2.221,0.313
				c-0.783,0.086-1.541,0.199-2.272,0.339c-0.729,0.139-1.427,0.312-2.089,0.521c-0.661,0.208-1.236,0.496-1.724,0.862
				c-0.487,0.365-0.879,0.829-1.175,1.384c-0.297,0.558-0.443,1.253-0.443,2.091c0,0.729,0.146,1.35,0.443,1.852
				c0.296,0.505,0.678,0.915,1.15,1.228c0.467,0.314,1.018,0.54,1.645,0.679c0.626,0.141,1.287,0.21,1.984,0.21
				c1.463,0,2.715-0.201,3.76-0.603c1.045-0.399,1.898-0.904,2.561-1.514c0.66-0.608,1.148-1.271,1.463-1.985
				c0.313-0.713,0.468-1.383,0.468-2.01V178.109z"/>
			<path fill="#3A3E3D" d="M93.918,165.05h4.178v5.694h0.104c1.08-2.195,2.402-3.813,3.971-4.859
				c1.564-1.045,3.551-1.532,5.953-1.462v4.701c-1.777,0-3.289,0.243-4.544,0.73c-1.252,0.488-2.264,1.203-3.029,2.143
				c-0.767,0.939-1.324,2.088-1.671,3.446c-0.35,1.358-0.521,2.892-0.521,4.597v12.013h-4.439V165.05z"/>
			<path fill="#3A3E3D" d="M129.799,173.72c-0.348-1.704-1.09-3.028-2.222-3.967c-1.13-0.942-2.619-1.412-4.464-1.412
				c-1.603,0-2.943,0.296-4.023,0.888c-1.078,0.591-1.939,1.375-2.584,2.35c-0.646,0.975-1.105,2.097-1.385,3.37
				c-0.279,1.269-0.418,2.584-0.418,3.941c0,1.254,0.148,2.473,0.443,3.658c0.297,1.184,0.758,2.235,1.385,3.159
				c0.629,0.924,1.438,1.663,2.428,2.22c0.994,0.556,2.203,0.836,3.631,0.836c2.158,0,3.865-0.583,5.118-1.75
				c1.253-1.168,2.021-2.777,2.298-4.831h4.545c-0.488,3.308-1.741,5.883-3.76,7.729c-2.021,1.846-4.736,2.768-8.149,2.768
				c-2.054,0-3.872-0.339-5.456-1.02c-1.586-0.679-2.909-1.627-3.971-2.847c-1.063-1.218-1.863-2.669-2.402-4.361
				c-0.541-1.689-0.809-3.542-0.809-5.563c0-2.018,0.262-3.908,0.781-5.666c0.523-1.758,1.316-3.29,2.378-4.596
				c1.063-1.306,2.385-2.333,3.97-3.081c1.584-0.748,3.455-1.124,5.613-1.124c1.531,0,2.97,0.184,4.309,0.55
				c1.342,0.364,2.535,0.933,3.58,1.698c1.043,0.766,1.887,1.731,2.531,2.899c0.645,1.166,1.053,2.55,1.229,4.15H129.799z"/>
			<path fill="#3A3E3D" d="M139.513,154.762h4.438v14.257h0.105c0.348-0.799,0.843-1.496,1.488-2.087
				c0.643-0.593,1.35-1.07,2.114-1.438c0.767-0.366,1.575-0.633,2.431-0.81c0.852-0.174,1.678-0.261,2.479-0.261
				c1.777,0,3.256,0.246,4.44,0.731c1.185,0.488,2.142,1.167,2.874,2.036c0.73,0.87,1.242,1.907,1.54,3.108
				c0.295,1.201,0.444,2.532,0.444,3.996v17.758h-4.441v-18.28c0-1.672-0.487-2.995-1.461-3.969
				c-0.975-0.975-2.316-1.462-4.023-1.462c-1.355,0-2.532,0.208-3.524,0.626c-0.992,0.419-1.82,1.01-2.479,1.777
				c-0.664,0.767-1.159,1.661-1.488,2.688c-0.334,1.028-0.498,2.15-0.498,3.369v15.251h-4.438V154.762z"/>
			<path fill="#3A3E3D" d="M191.584,183.49c-0.592,2.992-1.898,5.274-3.918,6.839c-2.02,1.568-4.563,2.351-7.625,2.351
				c-2.16,0-4.029-0.358-5.613-1.071c-1.586-0.712-2.918-1.697-3.996-2.951c-1.08-1.252-1.889-2.75-2.43-4.491
				c-0.541-1.74-0.845-3.637-0.914-5.691c0-2.021,0.314-3.892,0.941-5.616s1.506-3.212,2.637-4.466
				c1.131-1.253,2.473-2.229,4.021-2.925c1.549-0.696,3.246-1.045,5.093-1.045c2.403,0,4.395,0.496,5.981,1.489
				c1.582,0.993,2.855,2.254,3.813,3.787s1.617,3.205,1.984,5.014c0.365,1.813,0.512,3.535,0.443,5.172h-20.213
				c-0.035,1.184,0.104,2.306,0.418,3.369c0.313,1.063,0.818,2.002,1.514,2.818c0.697,0.82,1.586,1.473,2.666,1.959
				c1.079,0.488,2.348,0.733,3.813,0.733c1.845,0,3.375-0.436,4.595-1.307c1.219-0.87,2.02-2.194,2.403-3.967H191.584z
				 M187.301,175.967c-0.068-1.046-0.305-2.038-0.703-2.978c-0.401-0.939-0.941-1.751-1.622-2.429
				c-0.678-0.679-1.487-1.219-2.428-1.62c-0.939-0.4-1.95-0.6-3.028-0.6c-1.148,0-2.186,0.199-3.108,0.6
				c-0.921,0.401-1.715,0.951-2.376,1.646c-0.662,0.696-1.184,1.505-1.566,2.429c-0.384,0.922-0.609,1.905-0.68,2.951H187.301z"/>
			<path fill="#3A3E3D" d="M196.859,154.762h4.438v37.292h-4.438V154.762z"/>
			<path fill="#3A3E3D" d="M208.452,154.762h4.44v37.292h-4.44V154.762z"/>
			<path fill="#3A3E3D" d="M218.324,178.579c0-1.985,0.277-3.84,0.836-5.563c0.555-1.724,1.391-3.221,2.508-4.492
				c1.113-1.271,2.479-2.274,4.099-3.003c1.618-0.731,3.508-1.098,5.668-1.098c2.122,0,4.003,0.366,5.641,1.098
				c1.637,0.729,3.011,1.732,4.125,3.003c1.114,1.271,1.948,2.768,2.507,4.492c0.557,1.723,0.838,3.577,0.838,5.563
				c0,1.983-0.281,3.83-0.838,5.535c-0.559,1.706-1.393,3.195-2.507,4.465c-1.114,1.272-2.488,2.273-4.125,3.003
				c-1.638,0.732-3.519,1.098-5.641,1.098c-2.16,0-4.05-0.365-5.668-1.098c-1.619-0.73-2.985-1.731-4.099-3.003
				c-1.117-1.27-1.953-2.759-2.508-4.465C218.602,182.409,218.324,180.562,218.324,178.579z M223.023,178.579
				c0,1.637,0.218,3.09,0.654,4.36c0.434,1.272,1.035,2.333,1.803,3.186c0.766,0.854,1.661,1.507,2.689,1.959
				c1.024,0.453,2.115,0.68,3.265,0.68c1.147,0,2.235-0.228,3.263-0.68c1.026-0.452,1.924-1.104,2.689-1.959
				c0.768-0.852,1.366-1.914,1.803-3.186c0.435-1.27,0.652-2.724,0.652-4.36s-0.218-3.089-0.652-4.362
				c-0.437-1.27-1.035-2.342-1.803-3.211c-0.766-0.87-1.663-1.533-2.689-1.986c-1.027-0.45-2.115-0.678-3.263-0.678
				c-1.149,0-2.24,0.228-3.265,0.678c-1.028,0.453-1.924,1.117-2.689,1.986c-0.768,0.869-1.369,1.941-1.803,3.211
				C223.241,175.49,223.023,176.942,223.023,178.579z"/>
		</g>
	</g>
</g>
</svg>
