<?xml version="1.0" encoding="utf-8"?>
<!-- Generator: Adobe Illustrator 16.0.0, SVG Export Plug-In . SVG Version: 6.00 Build 0)  -->
<!DOCTYPE svg PUBLIC "-//W3C//DTD SVG 1.1//EN" "http://www.w3.org/Graphics/SVG/1.1/DTD/svg11.dtd" [
	<!ENTITY ns_flows "http://ns.adobe.com/Flows/1.0/">
	<!ENTITY ns_extend "http://ns.adobe.com/Extensibility/1.0/">
	<!ENTITY ns_ai "http://ns.adobe.com/AdobeIllustrator/10.0/">
	<!ENTITY ns_graphs "http://ns.adobe.com/Graphs/1.0/">
]>
<svg version="1.1" id="Layer_1" xmlns:x="&ns_extend;" xmlns:i="&ns_ai;" xmlns:graph="&ns_graphs;"
	 xmlns="http://www.w3.org/2000/svg" xmlns:xlink="http://www.w3.org/1999/xlink" xmlns:a="http://ns.adobe.com/AdobeSVGViewerExtensions/3.0/"
	 x="0px" y="0px" width="160.425px" height="50.583px" viewBox="0 0 160.425 50.583" enable-background="new 0 0 160.425 50.583"
	 xml:space="preserve">
<g>
	<g>
		<path fill="#FFFFFF" d="M34.161,3.049c-0.111-0.029-0.223-0.059-0.334-0.09c-0.197-0.051-0.395-0.104-0.592-0.158
			c-0.291-0.078-0.584-0.158-0.877-0.236c-0.094-0.027-0.189-0.051-0.283-0.076c-0.215-0.059-0.428-0.115-0.643-0.172
			c-0.115-0.031-0.229-0.061-0.346-0.09c-0.189-0.049-0.379-0.1-0.57-0.148c-0.127-0.031-0.256-0.063-0.383-0.094
			c-0.178-0.045-0.355-0.088-0.535-0.131c-0.137-0.033-0.273-0.063-0.41-0.092c-0.17-0.039-0.34-0.078-0.51-0.115
			c-0.145-0.031-0.291-0.059-0.436-0.088c-0.129-0.025-0.256-0.055-0.385-0.078v0.002c-0.076-0.014-0.15-0.029-0.225-0.043
			c-0.277,0-0.555,0-0.832,0c-0.527,0.105-1.057,0.186-1.578,0.32c-1.688,0.441-3.375,0.879-5.061,1.318
			c0.91,1.357,1.861,2.662,2.857,3.908c1.363-0.316,2.783-0.488,4.242-0.488c0.27,0,0.537,0.01,0.803,0.02
			c0.137,0.006,0.273,0.016,0.408,0.023c0.182,0.012,0.363,0.023,0.543,0.041c0.129,0.012,0.26,0.027,0.389,0.041
			c0.186,0.021,0.369,0.045,0.553,0.07c0.121,0.018,0.24,0.037,0.361,0.057c0.189,0.031,0.379,0.064,0.566,0.102
			c0.111,0.023,0.221,0.045,0.332,0.068c0.143,0.031,0.283,0.064,0.424,0.098c0.986-1.24,1.934-2.537,2.838-3.887
			C34.374,3.104,34.267,3.076,34.161,3.049z"/>
		<path fill="#FFFFFF" d="M47.79,15.793c-0.359,0.586-1.178,1.922-1.672,2.68c-0.186,0.281-0.586,0.879-0.896,1.344
			c-0.141,0.205-0.279,0.414-0.424,0.619c0.002,0.002,0.002,0.006,0.004,0.01L44.8,20.449c0.828,3.209,0.818,6.666-0.09,9.869
			c0.125-0.301,0.244-0.604,0.359-0.906c0.494-1.311,0.9-2.639,1.236-3.984c0.197-0.783,0.371-1.57,0.527-2.363
			c0.01,0.004,0.02,0.004,0.029,0.008c0.328-1.713,0.568-3.441,0.799-5.17c0-0.008,0.002-0.014,0.002-0.02
			c0.002-0.02,0.006-0.041,0.01-0.059c0.105-0.797,0.211-1.592,0.32-2.387C47.925,15.555,47.86,15.678,47.79,15.793z"/>
		<path fill="#FFFFFF" d="M47.478,6.654c-1.736-0.443-3.469-0.898-5.201-1.352c-2.09-0.547-4.182-1.098-6.275-1.635
			c-0.885,1.383-1.814,2.717-2.785,3.996c0.018,0.008,0.037,0.014,0.057,0.02c0.199,0.076,0.4,0.154,0.596,0.236
			c0.08,0.033,0.16,0.066,0.24,0.102c0.199,0.086,0.396,0.174,0.592,0.266c0.076,0.037,0.15,0.072,0.227,0.111
			c0.195,0.094,0.387,0.193,0.578,0.295c0.074,0.041,0.148,0.08,0.223,0.121c0.188,0.104,0.373,0.211,0.557,0.32
			c0.074,0.043,0.148,0.088,0.223,0.135c0.18,0.109,0.355,0.223,0.531,0.34c0.076,0.051,0.15,0.1,0.227,0.152
			c0.168,0.113,0.334,0.232,0.498,0.354c0.078,0.057,0.156,0.113,0.234,0.174c0.154,0.119,0.309,0.24,0.461,0.361
			c0.082,0.066,0.164,0.133,0.244,0.201c0.145,0.119,0.283,0.242,0.424,0.365c0.084,0.076,0.172,0.152,0.256,0.23
			c0.129,0.117,0.254,0.24,0.381,0.363c0.088,0.086,0.18,0.174,0.268,0.266c0.115,0.115,0.227,0.234,0.338,0.354
			c0.094,0.1,0.188,0.199,0.279,0.303c0.102,0.113,0.199,0.227,0.297,0.342c0.098,0.113,0.193,0.227,0.289,0.342
			c0.088,0.109,0.172,0.219,0.256,0.33c0.1,0.127,0.199,0.254,0.293,0.383c0.076,0.102,0.148,0.207,0.221,0.311
			c0.102,0.143,0.201,0.283,0.297,0.426c0.063,0.098,0.125,0.197,0.188,0.295c0.098,0.154,0.197,0.309,0.291,0.467
			c0.055,0.09,0.105,0.184,0.158,0.275c0.098,0.168,0.191,0.336,0.283,0.506c0.047,0.086,0.09,0.176,0.135,0.262
			c0.094,0.18,0.184,0.357,0.27,0.541c0.039,0.084,0.076,0.168,0.115,0.252c0.084,0.184,0.168,0.369,0.246,0.557
			c1.738-2.549,3.33-5.271,4.768-8.145c0.039-0.371,0.074-0.742,0.104-1.115c0-0.217,0-0.432,0-0.648
			C48.784,7.256,48.235,6.85,47.478,6.654z"/>
		<path fill="#FFFFFF" d="M10.331,5.492C8.81,5.887,7.282,6.275,5.764,6.691c-0.603,0.168-1.056,0.49-1.2,1.143
			c0,0.461,0,0.926,0,1.389c0.01,0.063,0.015,0.125,0.023,0.188c1.47,2.979,3.114,5.803,4.915,8.447
			c2.026-4.74,5.952-8.473,10.823-10.24c-0.973-1.281-1.902-2.615-2.789-4C15.136,4.244,12.733,4.869,10.331,5.492z"/>
		<g>
			<path fill="#FFFFFF" d="M26.71,43.855c-5.471,0-10.398-2.363-13.818-6.117c1.338,1.842,2.84,3.559,4.518,5.145
				c2.063,1.947,4.316,3.621,6.764,5.037c0.66,0.383,1.291,0.846,2.074,0.967h0.924c0.287-0.105,0.584-0.184,0.859-0.328
				c0.379-0.199,1.125-0.615,1.125-0.615l-1.129-4.084C28.026,43.859,26.958,43.855,26.71,43.855z"/>
			<path fill="#FFFFFF" d="M32.679,43.199l0.494,2.059c0,0,0.156-0.121,0.234-0.182c0.98-0.766,1.928-1.588,2.838-2.451
				c0.881-0.838,1.707-1.725,2.49-2.65c-1.664,1.387-3.59,2.457-5.713,3.121C32.909,43.131,32.679,43.199,32.679,43.199z"/>
		</g>
		<path fill="#FFFFFF" d="M43.126,25.162c0-9.051-7.365-16.416-16.418-16.416c-9.051,0-16.414,7.365-16.414,16.416
			c0,9.053,7.363,16.416,16.414,16.416c0.627,0,1.246-0.037,1.854-0.107l1.805,6.746c0.148,0.559,0.654,0.928,1.207,0.928
			c0.105,0,0.215-0.016,0.322-0.043c0.666-0.178,1.063-0.863,0.885-1.529L31.022,41C37.987,39.102,43.126,32.723,43.126,25.162z
			 M26.565,11.994c0.031,0,0.061,0,0.09,0.002v8.133c-0.059,0-0.117,0-0.176,0c-1.838,0-3.664-0.129-5.438-0.387
			c0.336-2.408,0.91-4.814,1.709-7.162C23.983,12.191,25.267,11.994,26.565,11.994z M20.675,25.143
			c0.002-1.441,0.092-2.898,0.264-4.338c1.754,0.25,3.559,0.383,5.373,0.391c0,0,0.293,0.002,0.336,0.002v3.945H20.675z
			 M26.647,26.207v3.896c-0.012,0-0.023,0-0.037,0c-1.816,0.029-3.691,0.184-5.578,0.459c-0.203-1.436-0.322-2.898-0.35-4.355
			H26.647z M21.581,12.908c-0.717,2.211-1.238,4.467-1.553,6.725c-1.666-0.277-3.277-0.668-4.803-1.164
			C16.659,15.932,18.892,13.982,21.581,12.908z M13.493,25.016c0-1.93,0.447-3.854,1.295-5.582c1.6,0.521,3.299,0.932,5.059,1.219
			c-0.178,1.484-0.271,2.98-0.271,4.455h-6.08C13.493,25.076,13.493,25.047,13.493,25.016z M13.53,26.238h6.053
			c0.029,1.498,0.15,2.998,0.359,4.469c-1.557,0.254-3.146,0.594-4.732,1.01C14.239,30.047,13.663,28.166,13.53,26.238z
			 M15.718,32.664c1.486-0.387,2.975-0.701,4.434-0.939c0.316,1.939,0.795,3.857,1.422,5.713
			C19.196,36.479,17.146,34.811,15.718,32.664z M26.657,38.355c-0.029,0-0.061,0-0.09,0c-1.303,0-2.588-0.197-3.822-0.588
			c-0.713-1.99-1.246-4.059-1.588-6.154c1.855-0.271,3.703-0.426,5.5-0.453V38.355z M38.655,19.439
			c0.857,1.744,1.291,3.619,1.291,5.576c0,0.031,0,0.063,0,0.092h-5.262c0.023-1.555-0.049-3.107-0.215-4.619
			C35.905,20.219,37.312,19.867,38.655,19.439z M38.22,18.475c-1.26,0.396-2.576,0.729-3.92,0.986
			c-0.275-2.102-0.734-4.137-1.371-6.061C35.14,14.533,36.991,16.309,38.22,18.475z M27.792,25.139v-3.957
			c1.887-0.043,3.766-0.219,5.596-0.525c0.162,1.469,0.234,2.975,0.215,4.482H27.792z M33.583,26.205
			c-0.049,1.432-0.176,2.871-0.385,4.289c-1.77-0.258-3.588-0.391-5.406-0.398v-3.891H33.583z M27.786,12.027
			c1.359,0.092,2.68,0.4,3.936,0.918c0.74,2.086,1.27,4.318,1.57,6.641c-1.803,0.307-3.654,0.486-5.506,0.531V12.027z
			 M27.778,38.324v-7.17c1.791,0.008,3.568,0.139,5.293,0.391c-0.332,2.012-0.824,3.996-1.465,5.904
			C30.384,37.939,29.099,38.232,27.778,38.324z M32.761,37.027c0.549-1.75,0.98-3.555,1.287-5.385
			c1.277,0.213,2.549,0.496,3.789,0.844C36.591,34.42,34.815,36.006,32.761,37.027z M34.253,30.635
			c0.217-1.463,0.354-2.939,0.406-4.4h5.248c-0.129,1.861-0.672,3.686-1.582,5.313C36.993,31.168,35.626,30.861,34.253,30.635z"/>
	</g>
	<path fill="#FFFFFF" d="M8.535,32.086c-0.014-0.055-0.028-0.109-0.041-0.164c-0.695-2.988-0.628-6.094,0.138-9.018
		c0.013-0.047,0.033-0.146,0.047-0.191c0,0-0.006-0.008-0.013-0.018c0-0.002,0.001-0.004,0.001-0.006
		c-0.254-0.363-0.502-0.736-0.752-1.109c-0.217-0.318-0.429-0.639-0.639-0.965c-0.224-0.344-0.445-0.689-0.664-1.041
		c-0.116-0.186-0.23-0.375-0.344-0.563C5.754,18.16,5.3,17.379,5.3,17.379s0.001,0.004,0.001,0.006
		c-0.001-0.002-0.003-0.004-0.004-0.006c0.03,0.203,0.06,0.406,0.089,0.613c0.073,0.52,0.146,1.043,0.218,1.566
		c0.167,1.197,0.333,2.395,0.496,3.594c0.116,0.846,0.257,1.684,0.42,2.514c0.007-0.002,0.011-0.002,0.018-0.004
		c0.157,0.793,0.337,1.582,0.54,2.363c0.274,1.053,0.594,2.096,0.96,3.125c0.08,0.225,0.161,0.447,0.245,0.67
		c0.043,0.109,0.086,0.223,0.129,0.332c0.139,0.354,0.28,0.703,0.43,1.051c-0.066-0.213-0.128-0.428-0.186-0.643
		C8.611,32.404,8.573,32.244,8.535,32.086z"/>
	<g>
		<g>
			<path fill="#FFFFFF" d="M141.277,39c-0.6,0.363-1.395,0.549-2.385,0.549c-0.863,0-1.545-0.25-2.055-0.744
				c-0.508-0.494-0.764-1.291-0.764-2.385c-0.912,1.094-1.975,1.891-3.186,2.385c-1.213,0.494-2.523,0.744-3.934,0.744
				c-0.912,0-1.777-0.105-2.602-0.314c-0.822-0.209-1.529-0.541-2.131-0.996c-0.6-0.457-1.076-1.043-1.428-1.762
				c-0.352-0.717-0.529-1.584-0.529-2.602c0-1.146,0.197-2.086,0.588-2.816c0.391-0.729,0.904-1.316,1.545-1.76
				c0.639-0.443,1.369-0.789,2.191-1.037c0.82-0.246,1.662-0.449,2.521-0.607c0.914-0.18,1.779-0.318,2.602-0.41
				c0.82-0.092,1.545-0.221,2.172-0.391c0.625-0.17,1.121-0.418,1.486-0.744s0.549-0.803,0.549-1.428
				c0-0.729-0.139-1.316-0.412-1.76s-0.625-0.781-1.057-1.018c-0.43-0.234-0.912-0.391-1.447-0.469
				c-0.533-0.078-1.063-0.117-1.584-0.117c-1.408,0-2.58,0.268-3.52,0.801c-0.939,0.535-1.447,1.545-1.527,3.035h-3.324
				c0.051-1.254,0.313-2.309,0.783-3.17c0.469-0.863,1.094-1.559,1.877-2.094c0.781-0.535,1.682-0.92,2.699-1.152
				c1.018-0.238,2.086-0.355,3.207-0.355c0.912,0,1.82,0.066,2.719,0.197c0.9,0.133,1.715,0.396,2.445,0.803
				c0.73,0.404,1.316,0.971,1.76,1.701c0.443,0.729,0.666,1.682,0.666,2.855v10.406c0,0.781,0.045,1.357,0.137,1.719
				c0.092,0.367,0.396,0.551,0.92,0.551c0.313,0,0.65-0.066,1.016-0.195V39z M135.879,28.633c-0.313,0.234-0.705,0.418-1.172,0.549
				c-0.471,0.129-0.967,0.24-1.486,0.332c-0.523,0.092-1.078,0.17-1.664,0.234s-1.154,0.15-1.703,0.256
				c-0.545,0.104-1.066,0.232-1.563,0.391c-0.496,0.154-0.926,0.371-1.293,0.645c-0.363,0.273-0.658,0.621-0.879,1.037
				c-0.223,0.418-0.332,0.938-0.332,1.566c0,0.545,0.109,1.012,0.332,1.387c0.221,0.377,0.508,0.686,0.861,0.918
				c0.35,0.236,0.764,0.406,1.232,0.51c0.469,0.105,0.965,0.158,1.486,0.158c1.096,0,2.033-0.15,2.816-0.451
				c0.781-0.299,1.422-0.678,1.918-1.135c0.494-0.457,0.859-0.953,1.096-1.486c0.234-0.535,0.35-1.037,0.35-1.506V28.633z"/>
			<path fill="#FFFFFF" d="M83.775,18.947h3.229v14.184c0,1.301,0.324,2.258,0.975,2.871s1.426,0.92,2.326,0.92
				c0.227,0,0.445-0.02,0.658-0.057c0.211-0.037,0.432-0.08,0.656-0.131c1.15-0.326,2.201-1.014,3.152-2.064
				s1.426-2.352,1.426-3.902v-11.82h3.227V38.76h-3.227v-2.063c-0.701,0.75-1.502,1.363-2.402,1.838s-1.814,0.801-2.738,0.977
				c-0.275,0.049-0.545,0.094-0.807,0.131c-0.264,0.037-0.533,0.057-0.807,0.057c-1.527,0-2.854-0.477-3.979-1.428
				c-1.125-0.949-1.689-2.463-1.689-4.539V18.947z"/>
			<path fill="#FFFFFF" d="M104.152,38.76V11.291h3.266V27.24l8.254-8.293h4.43l-7.094,7.092l7.994,12.721h-3.828l-6.83-10.357
				l-2.926,2.965v7.393H104.152z"/>
			<path fill="#FFFFFF" d="M144.342,11.291h3.266V38.76h-3.266V11.291z"/>
			<path fill="#FFFFFF" d="M152.598,11.291h3.264V38.76h-3.264V11.291z"/>
		</g>
		<g>
			<path fill="#FFFFFF" d="M61.885,10.885h3.904v24.684h13.586v3.33h-17.49V10.885z"/>
		</g>
	</g>
</g>
</svg>
